<svg xmlns="http://www.w3.org/2000/svg" width="395" height="362.59999" viewBox="0 0 395 362.59999">
  <defs>
    <style>
      .cls-1 {
        fill: #fff;
      }

      .cls-2 {
        fill: none;
        stroke: #2569b3;
        stroke-linecap: round;
        stroke-linejoin: round;
        stroke-width: 4px;
      }

      .cls-3 {
        fill: #2569b3;
      }
    </style>
  </defs>
  <title>Asset 1</title>
  <g id="Layer_2" data-name="Layer 2">
    <g id="Layer_1-2" data-name="Layer 1">
      <g>
        <polygon class="cls-1" points="2 56 2 306 197.5 360.6 393 306 393 56 197.4 2 2 56"/>
        <polygon class="cls-2" points="197.5 360.6 2 306 2 56 197.5 110.6 197.5 360.6"/>
        <polygon class="cls-2" points="197.5 360.6 393 306 393 56 197.5 110.6 197.5 360.6"/>
        <polygon class="cls-2" points="197.5 110.6 393 56 197.4 2 2 56 197.5 110.6"/>
        <path class="cls-3" d="M140.8,250.7a41.7488,41.7488,0,0,1-3.2,17.1,25.72923,25.72923,0,0,1-8.9,11,28.626,28.626,0,0,1-13.7,4.6,52.98009,52.98009,0,0,1-17.6-1.8c-11.6-3.1-20.8-8.2-27.5-15.5-6.7-7.2-11.6-17.4-14.5-30.4l20.4-.2q3.15,11.85,8.1,18a24.69881,24.69881,0,0,0,13.3,8.4c6.4,1.7,11.4.9,15.1-2.4s5.5-8.7,5.5-16.3c0-8.1-2.2-14.9-6.6-20.3s-11.2-9.4-20.4-11.8L83,209V189.6l7.4,2c8.8,2.3,15.1,2.1,19-.6s5.8-7.3,5.8-13.7c0-6-1.5-11-4.4-15s-7.2-6.7-12.8-8.2a18.26309,18.26309,0,0,0-11.4.3c-3.3,1.3-6.1,4.5-8.2,9.5l-19-11c3.2-8.1,8-13.8,14.4-17.2s15-3.6,25.8-.8c12.5,3.3,22.1,9.1,28.7,17.4a44.95007,44.95007,0,0,1,9.9,28.8c0,8-1.9,14.2-5.7,18.5s-9.2,6.9-16.3,7.7v.4q12.6,7.95,18.6,18.3C138.8,232.8,140.8,241.1,140.8,250.7Z"/>
        <path class="cls-3" d="M259.5,281.7V138.1l33-8.7c9.9-2.6,18.4-3.6,25.7-2.9s13.3,3.2,18,7.7c4.7,4.4,8.3,10.8,10.6,19,2.3,8.3,3.5,18.6,3.5,31.2a150.713,150.713,0,0,1-3.2,32.2A82.64063,82.64063,0,0,1,337,242.3a62.34645,62.34645,0,0,1-18,18.9c-7.4,5.2-16.4,9.1-26.9,11.9Zm34.4-31.1c11.3-3,19.5-9.3,24.6-18.8s7.6-23.2,7.6-40.9a105.9223,105.9223,0,0,0-2-22.4c-1.3-5.8-3.3-10.3-5.9-13.4a15.45827,15.45827,0,0,0-9.9-5.5,37.97964,37.97964,0,0,0-13.8,1.2l-10.8,2.8v99.7Z"/>
      </g>
    </g>
  </g>
</svg>
